<mxfile host="app.diagrams.net" modified="2024-03-28T08:02:08.204Z" agent="Mozilla/5.0 (Macintosh; Intel Mac OS X 10_15_7) AppleWebKit/537.36 (KHTML, like Gecko) Chrome/123.0.0.0 Safari/537.36" version="24.1.0" etag="CT30a1PY4Dz8xJlz_jeZ" type="github">
  <diagram name="第 1 页" id="uAyZEsQHsNXgmUbHKg5l">
    <mxGraphModel>
      <root>
        <mxCell id="0" />
        <mxCell id="1" parent="0" />
      </root>
    </mxGraphModel>
  </diagram>
</mxfile>
